<svg xmlns="http://www.w3.org/2000/svg" xmlns:xlink="http://www.w3.org/1999/xlink" width="79" zoomAndPan="magnify" viewBox="0 0 59.25 59.25" height="79" preserveAspectRatio="xMidYMid meet" version="1.0"><defs><g/><clipPath id="83adfd7ddf"><path d="M 0 0 L 57.90625 0 L 57.90625 57.90625 L 0 57.90625 Z M 0 0 " clip-rule="nonzero"/></clipPath><clipPath id="8808940b34"><path d="M 28.953125 0 C 12.964844 0 0 12.964844 0 28.953125 C 0 44.945312 12.964844 57.90625 28.953125 57.90625 C 44.945312 57.90625 57.90625 44.945312 57.90625 28.953125 C 57.90625 12.964844 44.945312 0 28.953125 0 Z M 28.953125 0 " clip-rule="nonzero"/></clipPath><clipPath id="128bf42314"><path d="M 4.230469 4.230469 L 53.675781 4.230469 L 53.675781 53.675781 L 4.230469 53.675781 Z M 4.230469 4.230469 " clip-rule="nonzero"/></clipPath><clipPath id="094ea69e82"><path d="M 28.953125 4.230469 C 15.300781 4.230469 4.230469 15.300781 4.230469 28.953125 C 4.230469 42.605469 15.300781 53.675781 28.953125 53.675781 C 42.605469 53.675781 53.675781 42.605469 53.675781 28.953125 C 53.675781 15.300781 42.605469 4.230469 28.953125 4.230469 Z M 28.953125 4.230469 " clip-rule="nonzero"/></clipPath><clipPath id="fc23f14746"><path d="M 42.722656 21.359375 L 57.90625 21.359375 L 57.90625 36.546875 L 42.722656 36.546875 Z M 42.722656 21.359375 " clip-rule="nonzero"/></clipPath><clipPath id="2a8cab5043"><path d="M 50.316406 21.359375 C 46.121094 21.359375 42.722656 24.761719 42.722656 28.953125 C 42.722656 33.148438 46.121094 36.546875 50.316406 36.546875 C 54.507812 36.546875 57.90625 33.148438 57.90625 28.953125 C 57.90625 24.761719 54.507812 21.359375 50.316406 21.359375 Z M 50.316406 21.359375 " clip-rule="nonzero"/></clipPath><clipPath id="de28eba951"><path d="M 21.359375 0 L 36.546875 0 L 36.546875 15.1875 L 21.359375 15.1875 Z M 21.359375 0 " clip-rule="nonzero"/></clipPath><clipPath id="fa75580933"><path d="M 28.953125 0 C 24.761719 0 21.359375 3.398438 21.359375 7.59375 C 21.359375 11.785156 24.761719 15.1875 28.953125 15.1875 C 33.148438 15.1875 36.546875 11.785156 36.546875 7.59375 C 36.546875 3.398438 33.148438 0 28.953125 0 Z M 28.953125 0 " clip-rule="nonzero"/></clipPath><clipPath id="e87b36348e"><path d="M 0 21.359375 L 15.1875 21.359375 L 15.1875 36.546875 L 0 36.546875 Z M 0 21.359375 " clip-rule="nonzero"/></clipPath><clipPath id="a6e784397a"><path d="M 7.59375 21.359375 C 3.398438 21.359375 0 24.761719 0 28.953125 C 0 33.148438 3.398438 36.546875 7.59375 36.546875 C 11.785156 36.546875 15.1875 33.148438 15.1875 28.953125 C 15.1875 24.761719 11.785156 21.359375 7.59375 21.359375 Z M 7.59375 21.359375 " clip-rule="nonzero"/></clipPath><clipPath id="d4d45279ca"><path d="M 21.359375 42.722656 L 36.546875 42.722656 L 36.546875 57.90625 L 21.359375 57.90625 Z M 21.359375 42.722656 " clip-rule="nonzero"/></clipPath><clipPath id="0994e70488"><path d="M 28.953125 42.722656 C 24.761719 42.722656 21.359375 46.121094 21.359375 50.316406 C 21.359375 54.507812 24.761719 57.90625 28.953125 57.90625 C 33.148438 57.90625 36.546875 54.507812 36.546875 50.316406 C 36.546875 46.121094 33.148438 42.722656 28.953125 42.722656 Z M 28.953125 42.722656 " clip-rule="nonzero"/></clipPath><clipPath id="0e88349a63"><path d="M 2.128906 23.519531 L 13.019531 23.519531 L 13.019531 34.414062 L 2.128906 34.414062 Z M 2.128906 23.519531 " clip-rule="nonzero"/></clipPath><clipPath id="826716c7ab"><path d="M 7.574219 23.519531 C 4.566406 23.519531 2.128906 25.960938 2.128906 28.96875 C 2.128906 31.972656 4.566406 34.414062 7.574219 34.414062 C 10.582031 34.414062 13.019531 31.972656 13.019531 28.96875 C 13.019531 25.960938 10.582031 23.519531 7.574219 23.519531 Z M 7.574219 23.519531 " clip-rule="nonzero"/></clipPath><clipPath id="a428856074"><path d="M 2.128906 24.460938 L 11.140625 24.460938 L 11.140625 33.472656 L 2.128906 33.472656 Z M 2.128906 24.460938 " clip-rule="nonzero"/></clipPath><clipPath id="d91c44dd9c"><path d="M 6.632812 24.460938 C 4.144531 24.460938 2.128906 26.480469 2.128906 28.96875 C 2.128906 31.453125 4.144531 33.472656 6.632812 33.472656 C 9.121094 33.472656 11.140625 31.453125 11.140625 28.96875 C 11.140625 26.480469 9.121094 24.460938 6.632812 24.460938 Z M 6.632812 24.460938 " clip-rule="nonzero"/></clipPath><clipPath id="4f353957de"><path d="M 23.507812 2.148438 L 34.398438 2.148438 L 34.398438 13.039062 L 23.507812 13.039062 Z M 23.507812 2.148438 " clip-rule="nonzero"/></clipPath><clipPath id="98dc305379"><path d="M 34.398438 7.59375 C 34.398438 4.585938 31.960938 2.148438 28.953125 2.148438 C 25.945312 2.148438 23.507812 4.585938 23.507812 7.59375 C 23.507812 10.601562 25.945312 13.039062 28.953125 13.039062 C 31.960938 13.039062 34.398438 10.601562 34.398438 7.59375 Z M 34.398438 7.59375 " clip-rule="nonzero"/></clipPath><clipPath id="49049ed57c"><path d="M 24.449219 2.148438 L 33.457031 2.148438 L 33.457031 11.15625 L 24.449219 11.15625 Z M 24.449219 2.148438 " clip-rule="nonzero"/></clipPath><clipPath id="a96016035b"><path d="M 33.457031 6.652344 C 33.457031 4.164062 31.441406 2.148438 28.953125 2.148438 C 26.464844 2.148438 24.449219 4.164062 24.449219 6.652344 C 24.449219 9.140625 26.464844 11.15625 28.953125 11.15625 C 31.441406 11.15625 33.457031 9.140625 33.457031 6.652344 Z M 33.457031 6.652344 " clip-rule="nonzero"/></clipPath><clipPath id="b954541c0a"><path d="M 44.867188 23.519531 L 55.757812 23.519531 L 55.757812 34.410156 L 44.867188 34.410156 Z M 44.867188 23.519531 " clip-rule="nonzero"/></clipPath><clipPath id="4d03c77eb6"><path d="M 50.3125 34.410156 C 53.320312 34.410156 55.757812 31.972656 55.757812 28.964844 C 55.757812 25.957031 53.320312 23.519531 50.3125 23.519531 C 47.304688 23.519531 44.867188 25.957031 44.867188 28.964844 C 44.867188 31.972656 47.304688 34.410156 50.3125 34.410156 Z M 50.3125 34.410156 " clip-rule="nonzero"/></clipPath><clipPath id="4d1e61bdc1"><path d="M 46.75 24.460938 L 55.757812 24.460938 L 55.757812 33.472656 L 46.75 33.472656 Z M 46.75 24.460938 " clip-rule="nonzero"/></clipPath><clipPath id="2984b24800"><path d="M 51.253906 33.472656 C 53.742188 33.472656 55.757812 31.453125 55.757812 28.964844 C 55.757812 26.476562 53.742188 24.460938 51.253906 24.460938 C 48.765625 24.460938 46.75 26.476562 46.75 28.964844 C 46.75 31.453125 48.765625 33.472656 51.253906 33.472656 Z M 51.253906 33.472656 " clip-rule="nonzero"/></clipPath><clipPath id="1de7c65802"><path d="M 23 44 L 35 44 L 35 56 L 23 56 Z M 23 44 " clip-rule="nonzero"/></clipPath><clipPath id="d37c1fe114"><path d="M 23.757812 55.882812 L 23.507812 44.992188 L 34.394531 44.746094 L 34.644531 55.632812 Z M 23.757812 55.882812 " clip-rule="nonzero"/></clipPath><clipPath id="c33ba9816a"><path d="M 23.632812 50.4375 C 23.703125 53.445312 26.195312 55.824219 29.203125 55.757812 C 32.207031 55.6875 34.589844 53.195312 34.519531 50.1875 C 34.453125 47.183594 31.960938 44.800781 28.953125 44.867188 C 25.945312 44.9375 23.5625 47.429688 23.632812 50.4375 Z M 23.632812 50.4375 " clip-rule="nonzero"/></clipPath><clipPath id="5b4270ce62"><path d="M 24 46 L 34 46 L 34 56 L 24 56 Z M 24 46 " clip-rule="nonzero"/></clipPath><clipPath id="978f401a7f"><path d="M 24.699219 55.859375 L 24.492188 46.851562 L 33.5 46.644531 L 33.707031 55.65625 Z M 24.699219 55.859375 " clip-rule="nonzero"/></clipPath><clipPath id="d653fb464c"><path d="M 24.59375 51.355469 C 24.652344 53.84375 26.714844 55.816406 29.203125 55.757812 C 31.6875 55.699219 33.660156 53.636719 33.601562 51.148438 C 33.546875 48.664062 31.484375 46.691406 28.996094 46.75 C 26.507812 46.804688 24.539062 48.867188 24.59375 51.355469 Z M 24.59375 51.355469 " clip-rule="nonzero"/></clipPath></defs><g clip-path="url(#83adfd7ddf)"><g clip-path="url(#8808940b34)"><path fill="#47412a" d="M 0 0 L 57.90625 0 L 57.90625 57.90625 L 0 57.90625 Z M 0 0 " fill-opacity="1" fill-rule="nonzero"/></g></g><g clip-path="url(#128bf42314)"><g clip-path="url(#094ea69e82)"><path fill="#050202" d="M 4.230469 4.230469 L 53.675781 4.230469 L 53.675781 53.675781 L 4.230469 53.675781 Z M 4.230469 4.230469 " fill-opacity="1" fill-rule="nonzero"/></g></g><g fill="#47412a" fill-opacity="1"><g transform="translate(15.185739, 39.555135)"><g><path d="M 8.0625 -19.375 L 8.0625 -13.265625 L 4.078125 -13.265625 L 4.078125 -19.375 Z M 4.078125 -5.125 L 4.078125 -11.484375 L 8.0625 -11.484375 L 8.0625 -5.125 Z M 10 -21.21875 L 2.203125 -21.21875 L 2.203125 -1.046875 L 4.078125 -1.046875 L 4.078125 -3.28125 L 10 -3.28125 Z M 12.25 -5.8125 C 13.65625 -4.34375 15.109375 -2.3125 15.75 -0.96875 L 17.484375 -2.0625 C 16.84375 -3.40625 15.3125 -5.375 13.90625 -6.75 Z M 26.453125 -12.640625 L 26.453125 -14.453125 L 19.359375 -14.453125 L 19.359375 -17.953125 L 25.28125 -17.953125 L 25.28125 -19.765625 L 19.359375 -19.765625 L 19.359375 -23.046875 L 17.34375 -23.046875 L 17.34375 -19.765625 L 11.625 -19.765625 L 11.625 -17.953125 L 17.34375 -17.953125 L 17.34375 -14.453125 L 10.4375 -14.453125 L 10.4375 -12.640625 L 20.984375 -12.640625 L 20.984375 -9.53125 L 10.578125 -9.53125 L 10.578125 -7.703125 L 20.984375 -7.703125 L 20.984375 -0.359375 C 20.984375 0.0625 20.84375 0.171875 20.375 0.1875 C 19.9375 0.21875 18.421875 0.21875 16.71875 0.171875 C 17.015625 0.6875 17.296875 1.515625 17.375 2.0625 C 19.609375 2.0625 20.984375 2.03125 21.828125 1.734375 C 22.65625 1.4375 22.96875 0.828125 22.96875 -0.328125 L 22.96875 -7.703125 L 26.15625 -7.703125 L 26.15625 -9.53125 L 22.96875 -9.53125 L 22.96875 -12.640625 Z M 26.453125 -12.640625 "/></g></g></g><g fill="#fbef8f" fill-opacity="1"><g transform="translate(16.400467, 39.568202)"><g><path d="M 8.0625 -19.375 L 8.0625 -13.265625 L 4.078125 -13.265625 L 4.078125 -19.375 Z M 4.078125 -5.125 L 4.078125 -11.484375 L 8.0625 -11.484375 L 8.0625 -5.125 Z M 10 -21.21875 L 2.203125 -21.21875 L 2.203125 -1.046875 L 4.078125 -1.046875 L 4.078125 -3.28125 L 10 -3.28125 Z M 12.25 -5.8125 C 13.65625 -4.34375 15.109375 -2.3125 15.75 -0.96875 L 17.484375 -2.0625 C 16.84375 -3.40625 15.3125 -5.375 13.90625 -6.75 Z M 26.453125 -12.640625 L 26.453125 -14.453125 L 19.359375 -14.453125 L 19.359375 -17.953125 L 25.28125 -17.953125 L 25.28125 -19.765625 L 19.359375 -19.765625 L 19.359375 -23.046875 L 17.34375 -23.046875 L 17.34375 -19.765625 L 11.625 -19.765625 L 11.625 -17.953125 L 17.34375 -17.953125 L 17.34375 -14.453125 L 10.4375 -14.453125 L 10.4375 -12.640625 L 20.984375 -12.640625 L 20.984375 -9.53125 L 10.578125 -9.53125 L 10.578125 -7.703125 L 20.984375 -7.703125 L 20.984375 -0.359375 C 20.984375 0.0625 20.84375 0.171875 20.375 0.1875 C 19.9375 0.21875 18.421875 0.21875 16.71875 0.171875 C 17.015625 0.6875 17.296875 1.515625 17.375 2.0625 C 19.609375 2.0625 20.984375 2.03125 21.828125 1.734375 C 22.65625 1.4375 22.96875 0.828125 22.96875 -0.328125 L 22.96875 -7.703125 L 26.15625 -7.703125 L 26.15625 -9.53125 L 22.96875 -9.53125 L 22.96875 -12.640625 Z M 26.453125 -12.640625 "/></g></g></g><g clip-path="url(#fc23f14746)"><g clip-path="url(#2a8cab5043)"><path fill="#47412a" d="M 42.722656 21.359375 L 57.90625 21.359375 L 57.90625 36.546875 L 42.722656 36.546875 Z M 42.722656 21.359375 " fill-opacity="1" fill-rule="nonzero"/></g></g><g clip-path="url(#de28eba951)"><g clip-path="url(#fa75580933)"><path fill="#47412a" d="M 21.359375 0 L 36.546875 0 L 36.546875 15.1875 L 21.359375 15.1875 Z M 21.359375 0 " fill-opacity="1" fill-rule="nonzero"/></g></g><g clip-path="url(#e87b36348e)"><g clip-path="url(#a6e784397a)"><path fill="#47412a" d="M 0 21.359375 L 15.1875 21.359375 L 15.1875 36.546875 L 0 36.546875 Z M 0 21.359375 " fill-opacity="1" fill-rule="nonzero"/></g></g><g clip-path="url(#d4d45279ca)"><g clip-path="url(#0994e70488)"><path fill="#47412a" d="M 21.359375 42.722656 L 36.546875 42.722656 L 36.546875 57.90625 L 21.359375 57.90625 Z M 21.359375 42.722656 " fill-opacity="1" fill-rule="nonzero"/></g></g><g clip-path="url(#0e88349a63)"><g clip-path="url(#826716c7ab)"><path fill="#fcec92" d="M 2.128906 23.519531 L 13.019531 23.519531 L 13.019531 34.414062 L 2.128906 34.414062 Z M 2.128906 23.519531 " fill-opacity="1" fill-rule="nonzero"/></g></g><g clip-path="url(#a428856074)"><g clip-path="url(#d91c44dd9c)"><path fill="#47412a" d="M 2.128906 24.460938 L 11.140625 24.460938 L 11.140625 33.472656 L 2.128906 33.472656 Z M 2.128906 24.460938 " fill-opacity="1" fill-rule="nonzero"/></g></g><g clip-path="url(#4f353957de)"><g clip-path="url(#98dc305379)"><path fill="#fcec92" d="M 34.398438 2.148438 L 34.398438 13.039062 L 23.507812 13.039062 L 23.507812 2.148438 Z M 34.398438 2.148438 " fill-opacity="1" fill-rule="nonzero"/></g></g><g clip-path="url(#49049ed57c)"><g clip-path="url(#a96016035b)"><path fill="#47412a" d="M 33.457031 2.148438 L 33.457031 11.15625 L 24.449219 11.15625 L 24.449219 2.148438 Z M 33.457031 2.148438 " fill-opacity="1" fill-rule="nonzero"/></g></g><g clip-path="url(#b954541c0a)"><g clip-path="url(#4d03c77eb6)"><path fill="#fcec92" d="M 55.757812 34.410156 L 44.867188 34.410156 L 44.867188 23.519531 L 55.757812 23.519531 Z M 55.757812 34.410156 " fill-opacity="1" fill-rule="nonzero"/></g></g><g clip-path="url(#4d1e61bdc1)"><g clip-path="url(#2984b24800)"><path fill="#47412a" d="M 55.757812 33.472656 L 46.75 33.472656 L 46.75 24.460938 L 55.757812 24.460938 Z M 55.757812 33.472656 " fill-opacity="1" fill-rule="nonzero"/></g></g><g clip-path="url(#1de7c65802)"><g clip-path="url(#d37c1fe114)"><g clip-path="url(#c33ba9816a)"><path fill="#fcec92" d="M 23.757812 55.882812 L 23.507812 44.992188 L 34.394531 44.746094 L 34.644531 55.632812 Z M 23.757812 55.882812 " fill-opacity="1" fill-rule="nonzero"/></g></g></g><g clip-path="url(#5b4270ce62)"><g clip-path="url(#978f401a7f)"><g clip-path="url(#d653fb464c)"><path fill="#47412a" d="M 24.699219 55.859375 L 24.492188 46.851562 L 33.5 46.644531 L 33.707031 55.65625 Z M 24.699219 55.859375 " fill-opacity="1" fill-rule="nonzero"/></g></g></g><g fill="#fcec92" fill-opacity="1"><g transform="translate(4.179429, 30.738633)"><g><path d="M 3.734375 -1.875 C 3.75 -2.125 3.75 -2.34375 3.75 -2.5625 L 4.546875 -2.5625 L 4.546875 -1.875 Z M 4.546875 -3.890625 L 4.546875 -3.15625 L 3.75 -3.15625 L 3.75 -3.890625 Z M 1 -2.0625 L 2.0625 -2.0625 L 2.0625 -1.75 L 1 -1.75 Z M 1 -2.828125 L 2.0625 -2.828125 L 2.0625 -2.515625 L 1 -2.515625 Z M 5.1875 -4.484375 L 3.09375 -4.484375 L 3.09375 -2.5625 C 3.09375 -1.921875 3.078125 -1.109375 2.796875 -0.421875 L 2.796875 -0.96875 L 1.859375 -0.96875 L 1.859375 -1.265625 L 2.703125 -1.265625 L 2.703125 -3.3125 L 1.859375 -3.3125 L 1.859375 -3.59375 L 2.8125 -3.59375 L 2.8125 -4.1875 L 1.859375 -4.1875 L 1.859375 -4.734375 L 1.203125 -4.734375 L 1.203125 -4.1875 L 0.234375 -4.1875 L 0.234375 -3.59375 L 1.203125 -3.59375 L 1.203125 -3.3125 L 0.390625 -3.3125 L 0.390625 -1.265625 L 1.203125 -1.265625 L 1.203125 -0.96875 L 0.203125 -0.96875 L 0.203125 -0.375 L 1.203125 -0.375 L 1.203125 0.46875 L 1.859375 0.46875 L 1.859375 -0.375 L 2.78125 -0.375 C 2.703125 -0.203125 2.609375 -0.03125 2.5 0.140625 C 2.65625 0.203125 2.9375 0.375 3.046875 0.484375 C 3.40625 0.015625 3.578125 -0.640625 3.671875 -1.28125 L 4.546875 -1.28125 L 4.546875 -0.296875 C 4.546875 -0.21875 4.515625 -0.1875 4.4375 -0.1875 C 4.34375 -0.1875 4.078125 -0.1875 3.828125 -0.203125 C 3.921875 -0.015625 4.015625 0.28125 4.03125 0.46875 C 4.453125 0.46875 4.734375 0.453125 4.9375 0.34375 C 5.125 0.234375 5.1875 0.046875 5.1875 -0.28125 Z M 5.1875 -4.484375 "/></g></g></g><g fill="#fcec92" fill-opacity="1"><g transform="translate(26.158181, 10.643113)"><g><path d="M 0.40625 0.359375 L 5.09375 0.359375 L 5.09375 -0.28125 L 0.40625 -0.28125 Z M 3.703125 -1.8125 L 1.765625 -1.8125 L 1.765625 -2.125 L 3.703125 -2.125 Z M 3.703125 -1.078125 L 1.765625 -1.078125 L 1.765625 -1.375 L 3.703125 -1.375 Z M 3.3125 -3.046875 C 3.40625 -2.875 3.484375 -2.734375 3.59375 -2.578125 L 1.3125 -2.578125 C 1.359375 -2.734375 1.390625 -2.890625 1.421875 -3.046875 Z M 4.1875 -4.03125 L 4.1875 -3.625 L 1.46875 -3.625 C 1.484375 -3.71875 1.484375 -3.828125 1.484375 -3.90625 L 1.484375 -4.03125 Z M 4.859375 -3.046875 L 4.859375 -4.609375 L 0.796875 -4.609375 L 0.796875 -3.921875 C 0.796875 -3.3125 0.734375 -2.4375 0.125 -1.8125 C 0.265625 -1.734375 0.546875 -1.46875 0.65625 -1.328125 C 0.875 -1.5625 1.03125 -1.828125 1.15625 -2.109375 L 1.15625 -0.609375 L 4.328125 -0.609375 L 4.328125 -1.828125 C 4.515625 -1.71875 4.703125 -1.609375 4.90625 -1.515625 C 5 -1.6875 5.203125 -1.953125 5.359375 -2.078125 C 4.8125 -2.265625 4.34375 -2.625 4.03125 -3.046875 Z M 4.859375 -3.046875 "/></g></g></g><g fill="#fcec92" fill-opacity="1"><g transform="translate(47.519074, 30.738633)"><g><path d="M 3.859375 -3.703125 C 3.78125 -3.5625 3.703125 -3.421875 3.625 -3.3125 L 2.84375 -3.3125 C 2.9375 -3.4375 3.03125 -3.5625 3.125 -3.703125 Z M 4.625 -2.046875 L 4.03125 -2.046875 L 4.03125 -2.75 L 4.625 -2.75 Z M 2.90625 -2.046875 L 2.90625 -2.75 L 3.453125 -2.75 L 3.453125 -2.046875 Z M 0.96875 -1.15625 L 0.96875 -2.171875 L 1.4375 -2.171875 L 1.4375 -1.15625 Z M 1.4375 -3.734375 L 1.4375 -2.75 L 0.96875 -2.75 L 0.96875 -3.734375 Z M 4.5625 -0.140625 C 4.484375 -0.140625 4.46875 -0.15625 4.46875 -0.3125 L 4.46875 -1.484375 L 5.234375 -1.484375 L 5.234375 -3.3125 L 4.28125 -3.3125 C 4.4375 -3.546875 4.59375 -3.796875 4.703125 -4.015625 L 4.296875 -4.28125 L 4.203125 -4.25 L 3.4375 -4.25 C 3.5 -4.375 3.546875 -4.5 3.609375 -4.625 L 2.953125 -4.734375 C 2.78125 -4.28125 2.5 -3.78125 2.03125 -3.375 L 2.03125 -4.3125 L 0.375 -4.3125 L 0.375 -0.140625 L 0.96875 -0.140625 L 0.96875 -0.578125 L 2.03125 -0.578125 L 2.03125 -3.0625 C 2.140625 -2.96875 2.25 -2.859375 2.296875 -2.765625 L 2.328125 -2.78125 L 2.328125 -1.484375 L 2.875 -1.484375 C 2.796875 -0.796875 2.609375 -0.296875 1.65625 -0.03125 C 1.78125 0.09375 1.953125 0.328125 2.015625 0.5 C 3.15625 0.125 3.40625 -0.5625 3.5 -1.484375 L 3.84375 -1.484375 L 3.84375 -0.3125 C 3.84375 0.25 3.953125 0.4375 4.453125 0.4375 L 4.859375 0.4375 C 5.28125 0.4375 5.421875 0.234375 5.484375 -0.546875 C 5.3125 -0.609375 5.046875 -0.703125 4.921875 -0.8125 C 4.90625 -0.21875 4.890625 -0.140625 4.796875 -0.140625 Z M 4.5625 -0.140625 "/></g></g></g><g fill="#fcec92" fill-opacity="1"><g transform="translate(26.158181, 52.39329)"><g><path d="M 4.0625 -1.890625 C 3.953125 -2.046875 3.703125 -2.265625 3.515625 -2.40625 L 3.125 -2.109375 C 3.3125 -1.9375 3.546875 -1.6875 3.640625 -1.546875 Z M 4.40625 -2.484375 C 4.21875 -1.953125 3.9375 -1.515625 3.59375 -1.140625 C 3.328125 -1.421875 3.09375 -1.71875 2.921875 -2.0625 C 3.03125 -2.203125 3.125 -2.34375 3.203125 -2.484375 Z M 4.78125 -3.09375 L 4.671875 -3.078125 L 3.546875 -3.078125 C 3.59375 -3.1875 3.65625 -3.3125 3.703125 -3.4375 L 3.25 -3.5625 L 5.28125 -3.5625 L 5.28125 -4.1875 L 3.265625 -4.1875 C 3.171875 -4.375 3.046875 -4.609375 2.9375 -4.78125 L 2.3125 -4.578125 C 2.390625 -4.46875 2.453125 -4.3125 2.515625 -4.1875 L 0.3125 -4.1875 L 0.3125 -3.5625 L 1.46875 -3.5625 C 1.15625 -2.84375 0.65625 -2.140625 0.09375 -1.703125 C 0.234375 -1.59375 0.484375 -1.3125 0.578125 -1.1875 C 0.71875 -1.3125 0.859375 -1.453125 1 -1.609375 L 1 0.484375 L 1.65625 0.484375 L 1.65625 -2.484375 C 1.84375 -2.78125 2 -3.109375 2.140625 -3.421875 L 1.65625 -3.5625 L 3.03125 -3.5625 C 2.78125 -2.9375 2.296875 -2.1875 1.71875 -1.734375 C 1.859375 -1.640625 2.0625 -1.421875 2.171875 -1.28125 C 2.296875 -1.375 2.421875 -1.484375 2.53125 -1.609375 C 2.703125 -1.28125 2.90625 -1 3.125 -0.734375 C 2.734375 -0.4375 2.28125 -0.21875 1.796875 -0.0625 C 1.921875 0.046875 2.125 0.328125 2.21875 0.5 C 2.71875 0.3125 3.1875 0.046875 3.59375 -0.28125 C 4 0.046875 4.46875 0.3125 5 0.5 C 5.09375 0.3125 5.296875 0.046875 5.4375 -0.09375 C 4.921875 -0.234375 4.46875 -0.453125 4.078125 -0.734375 C 4.59375 -1.28125 4.96875 -2 5.203125 -2.890625 Z M 4.78125 -3.09375 "/></g></g></g></svg>