<?xml version="1.0" encoding="UTF-8"?>
<svg xmlns="http://www.w3.org/2000/svg" xmlns:xlink="http://www.w3.org/1999/xlink" width="40px" height="40px" viewBox="0 0 40 40" version="1.1">
<defs>
<clipPath id="clip1">
  <path d="M 0 0 L 39.09375 0 L 39.09375 39.09375 L 0 39.09375 Z M 0 0 "/>
</clipPath>
<clipPath id="clip2">
  <path d="M 19.546875 0 C 8.753906 0 0 8.753906 0 19.546875 C 0 30.34375 8.753906 39.09375 19.546875 39.09375 C 30.34375 39.09375 39.09375 30.34375 39.09375 19.546875 C 39.09375 8.753906 30.34375 0 19.546875 0 Z M 19.546875 0 "/>
</clipPath>
<clipPath id="clip3">
  <path d="M 2.855469 2.855469 L 36.238281 2.855469 L 36.238281 36.238281 L 2.855469 36.238281 Z M 2.855469 2.855469 "/>
</clipPath>
<clipPath id="clip4">
  <path d="M 19.546875 2.855469 C 10.328125 2.855469 2.855469 10.328125 2.855469 19.546875 C 2.855469 28.761719 10.328125 36.238281 19.546875 36.238281 C 28.761719 36.238281 36.238281 28.761719 36.238281 19.546875 C 36.238281 10.328125 28.761719 2.855469 19.546875 2.855469 Z M 19.546875 2.855469 "/>
</clipPath>
<clipPath id="clip5">
  <path d="M 28.84375 14.417969 L 39.09375 14.417969 L 39.09375 24.671875 L 28.84375 24.671875 Z M 28.84375 14.417969 "/>
</clipPath>
<clipPath id="clip6">
  <path d="M 33.96875 14.417969 C 31.136719 14.417969 28.84375 16.714844 28.84375 19.546875 C 28.84375 22.378906 31.136719 24.671875 33.96875 24.671875 C 36.796875 24.671875 39.09375 22.378906 39.09375 19.546875 C 39.09375 16.714844 36.796875 14.417969 33.96875 14.417969 Z M 33.96875 14.417969 "/>
</clipPath>
<clipPath id="clip7">
  <path d="M 14.417969 0 L 24.671875 0 L 24.671875 10.253906 L 14.417969 10.253906 Z M 14.417969 0 "/>
</clipPath>
<clipPath id="clip8">
  <path d="M 19.546875 0 C 16.714844 0 14.417969 2.292969 14.417969 5.125 C 14.417969 7.957031 16.714844 10.253906 19.546875 10.253906 C 22.378906 10.253906 24.671875 7.957031 24.671875 5.125 C 24.671875 2.292969 22.378906 0 19.546875 0 Z M 19.546875 0 "/>
</clipPath>
<clipPath id="clip9">
  <path d="M 0 14.417969 L 10.253906 14.417969 L 10.253906 24.671875 L 0 24.671875 Z M 0 14.417969 "/>
</clipPath>
<clipPath id="clip10">
  <path d="M 5.125 14.417969 C 2.292969 14.417969 0 16.714844 0 19.546875 C 0 22.378906 2.292969 24.671875 5.125 24.671875 C 7.957031 24.671875 10.253906 22.378906 10.253906 19.546875 C 10.253906 16.714844 7.957031 14.417969 5.125 14.417969 Z M 5.125 14.417969 "/>
</clipPath>
<clipPath id="clip11">
  <path d="M 14.417969 28.84375 L 24.671875 28.84375 L 24.671875 39.09375 L 14.417969 39.09375 Z M 14.417969 28.84375 "/>
</clipPath>
<clipPath id="clip12">
  <path d="M 19.546875 28.84375 C 16.714844 28.84375 14.417969 31.136719 14.417969 33.96875 C 14.417969 36.796875 16.714844 39.09375 19.546875 39.09375 C 22.378906 39.09375 24.671875 36.796875 24.671875 33.96875 C 24.671875 31.136719 22.378906 28.84375 19.546875 28.84375 Z M 19.546875 28.84375 "/>
</clipPath>
<clipPath id="clip13">
  <path d="M 1.4375 15.878906 L 8.789062 15.878906 L 8.789062 23.234375 L 1.4375 23.234375 Z M 1.4375 15.878906 "/>
</clipPath>
<clipPath id="clip14">
  <path d="M 5.113281 15.878906 C 3.082031 15.878906 1.4375 17.527344 1.4375 19.558594 C 1.4375 21.585938 3.082031 23.234375 5.113281 23.234375 C 7.144531 23.234375 8.789062 21.585938 8.789062 19.558594 C 8.789062 17.527344 7.144531 15.878906 5.113281 15.878906 Z M 5.113281 15.878906 "/>
</clipPath>
<clipPath id="clip15">
  <path d="M 1.4375 16.515625 L 7.519531 16.515625 L 7.519531 22.597656 L 1.4375 22.597656 Z M 1.4375 16.515625 "/>
</clipPath>
<clipPath id="clip16">
  <path d="M 4.476562 16.515625 C 2.796875 16.515625 1.4375 17.878906 1.4375 19.558594 C 1.4375 21.234375 2.796875 22.597656 4.476562 22.597656 C 6.15625 22.597656 7.519531 21.234375 7.519531 19.558594 C 7.519531 17.878906 6.15625 16.515625 4.476562 16.515625 Z M 4.476562 16.515625 "/>
</clipPath>
<clipPath id="clip17">
  <path d="M 15.871094 1.449219 L 23.222656 1.449219 L 23.222656 8.804688 L 15.871094 8.804688 Z M 15.871094 1.449219 "/>
</clipPath>
<clipPath id="clip18">
  <path d="M 23.222656 5.125 C 23.222656 3.097656 21.578125 1.449219 19.546875 1.449219 C 17.515625 1.449219 15.871094 3.097656 15.871094 5.125 C 15.871094 7.15625 17.515625 8.804688 19.546875 8.804688 C 21.578125 8.804688 23.222656 7.15625 23.222656 5.125 Z M 23.222656 5.125 "/>
</clipPath>
<clipPath id="clip19">
  <path d="M 16.503906 1.449219 L 22.585938 1.449219 L 22.585938 7.53125 L 16.503906 7.53125 Z M 16.503906 1.449219 "/>
</clipPath>
<clipPath id="clip20">
  <path d="M 22.585938 4.492188 C 22.585938 2.8125 21.226562 1.449219 19.546875 1.449219 C 17.867188 1.449219 16.503906 2.8125 16.503906 4.492188 C 16.503906 6.171875 17.867188 7.53125 19.546875 7.53125 C 21.226562 7.53125 22.585938 6.171875 22.585938 4.492188 Z M 22.585938 4.492188 "/>
</clipPath>
<clipPath id="clip21">
  <path d="M 30.289062 15.878906 L 37.640625 15.878906 L 37.640625 23.230469 L 30.289062 23.230469 Z M 30.289062 15.878906 "/>
</clipPath>
<clipPath id="clip22">
  <path d="M 33.964844 23.230469 C 35.996094 23.230469 37.640625 21.585938 37.640625 19.554688 C 37.640625 17.523438 35.996094 15.878906 33.964844 15.878906 C 31.9375 15.878906 30.289062 17.523438 30.289062 19.554688 C 30.289062 21.585938 31.9375 23.230469 33.964844 23.230469 Z M 33.964844 23.230469 "/>
</clipPath>
<clipPath id="clip23">
  <path d="M 31.5625 16.515625 L 37.640625 16.515625 L 37.640625 22.597656 L 31.5625 22.597656 Z M 31.5625 16.515625 "/>
</clipPath>
<clipPath id="clip24">
  <path d="M 34.601562 22.597656 C 36.28125 22.597656 37.640625 21.234375 37.640625 19.554688 C 37.640625 17.875 36.28125 16.515625 34.601562 16.515625 C 32.921875 16.515625 31.5625 17.875 31.5625 19.554688 C 31.5625 21.234375 32.921875 22.597656 34.601562 22.597656 Z M 34.601562 22.597656 "/>
</clipPath>
<clipPath id="clip25">
  <path d="M 15.527344 30 L 23.628906 30 L 23.628906 37.804688 L 15.527344 37.804688 Z M 15.527344 30 "/>
</clipPath>
<clipPath id="clip26">
  <path d="M 16.039062 37.726562 L 15.871094 30.375 L 23.21875 30.207031 L 23.390625 37.558594 Z M 16.039062 37.726562 "/>
</clipPath>
<clipPath id="clip27">
  <path d="M 15.953125 34.050781 C 16.003906 36.082031 17.683594 37.6875 19.714844 37.640625 C 21.742188 37.59375 23.351562 35.914062 23.304688 33.882812 C 23.257812 31.855469 21.578125 30.246094 19.546875 30.289062 C 17.515625 30.335938 15.90625 32.019531 15.953125 34.050781 Z M 15.953125 34.050781 "/>
</clipPath>
<clipPath id="clip28">
  <path d="M 16.203125 31.054688 L 22.953125 31.054688 L 22.953125 37.804688 L 16.203125 37.804688 Z M 16.203125 31.054688 "/>
</clipPath>
<clipPath id="clip29">
  <path d="M 16.675781 37.710938 L 16.535156 31.628906 L 22.617188 31.488281 L 22.753906 37.574219 Z M 16.675781 37.710938 "/>
</clipPath>
<clipPath id="clip30">
  <path d="M 16.601562 34.671875 C 16.644531 36.351562 18.035156 37.683594 19.714844 37.640625 C 21.390625 37.601562 22.722656 36.210938 22.683594 34.53125 C 22.648438 32.851562 21.253906 31.523438 19.574219 31.5625 C 17.894531 31.597656 16.566406 32.992188 16.601562 34.671875 Z M 16.601562 34.671875 "/>
</clipPath>
</defs>
<g id="surface1">
<g clip-path="url(#clip1)" clip-rule="nonzero">
<g clip-path="url(#clip2)" clip-rule="nonzero">
<path style=" stroke:none;fill-rule:nonzero;fill:rgb(27.843139%,25.490198%,16.470589%);fill-opacity:1;" d="M 0 0 L 39.09375 0 L 39.09375 39.09375 L 0 39.09375 Z M 0 0 "/>
</g>
</g>
<g clip-path="url(#clip3)" clip-rule="nonzero">
<g clip-path="url(#clip4)" clip-rule="nonzero">
<path style=" stroke:none;fill-rule:nonzero;fill:rgb(1.960784%,0.784314%,0.784314%);fill-opacity:1;" d="M 2.855469 2.855469 L 36.238281 2.855469 L 36.238281 36.238281 L 2.855469 36.238281 Z M 2.855469 2.855469 "/>
</g>
</g>
<path style=" stroke:none;fill-rule:nonzero;fill:rgb(27.843139%,25.490198%,16.470589%);fill-opacity:1;" d="M 15.695312 13.625 L 15.695312 17.75 L 13.003906 17.75 L 13.003906 13.625 Z M 13.003906 23.242188 L 13.003906 18.949219 L 15.695312 18.949219 L 15.695312 23.242188 Z M 17.003906 12.378906 L 11.738281 12.378906 L 11.738281 25.996094 L 13.003906 25.996094 L 13.003906 24.488281 L 17.003906 24.488281 Z M 18.523438 22.78125 C 19.472656 23.769531 20.453125 25.144531 20.886719 26.050781 L 22.054688 25.3125 C 21.625 24.40625 20.589844 23.074219 19.640625 22.148438 Z M 28.109375 18.171875 L 28.109375 16.945312 L 23.320312 16.945312 L 23.320312 14.582031 L 27.320312 14.582031 L 27.320312 13.359375 L 23.320312 13.359375 L 23.320312 11.144531 L 21.960938 11.144531 L 21.960938 13.359375 L 18.101562 13.359375 L 18.101562 14.582031 L 21.960938 14.582031 L 21.960938 16.945312 L 17.296875 16.945312 L 17.296875 18.171875 L 24.417969 18.171875 L 24.417969 20.269531 L 17.394531 20.269531 L 17.394531 21.503906 L 24.417969 21.503906 L 24.417969 26.460938 C 24.417969 26.746094 24.324219 26.820312 24.007812 26.832031 C 23.710938 26.851562 22.6875 26.851562 21.539062 26.820312 C 21.738281 27.167969 21.929688 27.726562 21.980469 28.097656 C 23.492188 28.097656 24.417969 28.074219 24.988281 27.875 C 25.546875 27.675781 25.757812 27.261719 25.757812 26.480469 L 25.757812 21.503906 L 27.910156 21.503906 L 27.910156 20.269531 L 25.757812 20.269531 L 25.757812 18.171875 Z M 28.109375 18.171875 "/>
<path style=" stroke:none;fill-rule:nonzero;fill:rgb(98.431373%,93.725491%,56.078434%);fill-opacity:1;" d="M 16.515625 13.632812 L 16.515625 17.757812 L 13.824219 17.757812 L 13.824219 13.632812 Z M 13.824219 23.253906 L 13.824219 18.960938 L 16.515625 18.960938 L 16.515625 23.253906 Z M 17.824219 12.386719 L 12.558594 12.386719 L 12.558594 26.007812 L 13.824219 26.007812 L 13.824219 24.496094 L 17.824219 24.496094 Z M 19.34375 22.789062 C 20.292969 23.78125 21.273438 25.152344 21.703125 26.058594 L 22.875 25.320312 C 22.441406 24.414062 21.410156 23.085938 20.460938 22.15625 Z M 28.929688 18.179688 L 28.929688 16.957031 L 24.140625 16.957031 L 24.140625 14.59375 L 28.140625 14.59375 L 28.140625 13.367188 L 24.140625 13.367188 L 24.140625 11.152344 L 22.78125 11.152344 L 22.78125 13.367188 L 18.921875 13.367188 L 18.921875 14.59375 L 22.78125 14.59375 L 22.78125 16.957031 L 18.117188 16.957031 L 18.117188 18.179688 L 25.238281 18.179688 L 25.238281 20.277344 L 18.214844 20.277344 L 18.214844 21.511719 L 25.238281 21.511719 L 25.238281 26.46875 C 25.238281 26.753906 25.144531 26.828125 24.828125 26.839844 C 24.53125 26.859375 23.507812 26.859375 22.359375 26.828125 C 22.558594 27.175781 22.75 27.734375 22.800781 28.105469 C 24.308594 28.105469 25.238281 28.085938 25.808594 27.882812 C 26.367188 27.683594 26.578125 27.273438 26.578125 26.492188 L 26.578125 21.511719 L 28.730469 21.511719 L 28.730469 20.277344 L 26.578125 20.277344 L 26.578125 18.179688 Z M 28.929688 18.179688 "/>
<g clip-path="url(#clip5)" clip-rule="nonzero">
<g clip-path="url(#clip6)" clip-rule="nonzero">
<path style=" stroke:none;fill-rule:nonzero;fill:rgb(27.843139%,25.490198%,16.470589%);fill-opacity:1;" d="M 28.84375 14.417969 L 39.09375 14.417969 L 39.09375 24.671875 L 28.84375 24.671875 Z M 28.84375 14.417969 "/>
</g>
</g>
<g clip-path="url(#clip7)" clip-rule="nonzero">
<g clip-path="url(#clip8)" clip-rule="nonzero">
<path style=" stroke:none;fill-rule:nonzero;fill:rgb(27.843139%,25.490198%,16.470589%);fill-opacity:1;" d="M 14.417969 0 L 24.671875 0 L 24.671875 10.253906 L 14.417969 10.253906 Z M 14.417969 0 "/>
</g>
</g>
<g clip-path="url(#clip9)" clip-rule="nonzero">
<g clip-path="url(#clip10)" clip-rule="nonzero">
<path style=" stroke:none;fill-rule:nonzero;fill:rgb(27.843139%,25.490198%,16.470589%);fill-opacity:1;" d="M 0 14.417969 L 10.253906 14.417969 L 10.253906 24.671875 L 0 24.671875 Z M 0 14.417969 "/>
</g>
</g>
<g clip-path="url(#clip11)" clip-rule="nonzero">
<g clip-path="url(#clip12)" clip-rule="nonzero">
<path style=" stroke:none;fill-rule:nonzero;fill:rgb(27.843139%,25.490198%,16.470589%);fill-opacity:1;" d="M 14.417969 28.84375 L 24.671875 28.84375 L 24.671875 39.09375 L 14.417969 39.09375 Z M 14.417969 28.84375 "/>
</g>
</g>
<g clip-path="url(#clip13)" clip-rule="nonzero">
<g clip-path="url(#clip14)" clip-rule="nonzero">
<path style=" stroke:none;fill-rule:nonzero;fill:rgb(98.823529%,92.54902%,57.254905%);fill-opacity:1;" d="M 1.4375 15.878906 L 8.789062 15.878906 L 8.789062 23.234375 L 1.4375 23.234375 Z M 1.4375 15.878906 "/>
</g>
</g>
<g clip-path="url(#clip15)" clip-rule="nonzero">
<g clip-path="url(#clip16)" clip-rule="nonzero">
<path style=" stroke:none;fill-rule:nonzero;fill:rgb(27.843139%,25.490198%,16.470589%);fill-opacity:1;" d="M 1.4375 16.515625 L 7.519531 16.515625 L 7.519531 22.597656 L 1.4375 22.597656 Z M 1.4375 16.515625 "/>
</g>
</g>
<g clip-path="url(#clip17)" clip-rule="nonzero">
<g clip-path="url(#clip18)" clip-rule="nonzero">
<path style=" stroke:none;fill-rule:nonzero;fill:rgb(98.823529%,92.54902%,57.254905%);fill-opacity:1;" d="M 23.222656 1.449219 L 23.222656 8.804688 L 15.871094 8.804688 L 15.871094 1.449219 Z M 23.222656 1.449219 "/>
</g>
</g>
<g clip-path="url(#clip19)" clip-rule="nonzero">
<g clip-path="url(#clip20)" clip-rule="nonzero">
<path style=" stroke:none;fill-rule:nonzero;fill:rgb(27.843139%,25.490198%,16.470589%);fill-opacity:1;" d="M 22.585938 1.449219 L 22.585938 7.53125 L 16.503906 7.53125 L 16.503906 1.449219 Z M 22.585938 1.449219 "/>
</g>
</g>
<g clip-path="url(#clip21)" clip-rule="nonzero">
<g clip-path="url(#clip22)" clip-rule="nonzero">
<path style=" stroke:none;fill-rule:nonzero;fill:rgb(98.823529%,92.54902%,57.254905%);fill-opacity:1;" d="M 37.640625 23.230469 L 30.289062 23.230469 L 30.289062 15.878906 L 37.640625 15.878906 Z M 37.640625 23.230469 "/>
</g>
</g>
<g clip-path="url(#clip23)" clip-rule="nonzero">
<g clip-path="url(#clip24)" clip-rule="nonzero">
<path style=" stroke:none;fill-rule:nonzero;fill:rgb(27.843139%,25.490198%,16.470589%);fill-opacity:1;" d="M 37.640625 22.597656 L 31.5625 22.597656 L 31.5625 16.515625 L 37.640625 16.515625 Z M 37.640625 22.597656 "/>
</g>
</g>
<g clip-path="url(#clip25)" clip-rule="nonzero">
<g clip-path="url(#clip26)" clip-rule="nonzero">
<g clip-path="url(#clip27)" clip-rule="nonzero">
<path style=" stroke:none;fill-rule:nonzero;fill:rgb(98.823529%,92.54902%,57.254905%);fill-opacity:1;" d="M 16.039062 37.726562 L 15.871094 30.375 L 23.21875 30.207031 L 23.390625 37.558594 Z M 16.039062 37.726562 "/>
</g>
</g>
</g>
<g clip-path="url(#clip28)" clip-rule="nonzero">
<g clip-path="url(#clip29)" clip-rule="nonzero">
<g clip-path="url(#clip30)" clip-rule="nonzero">
<path style=" stroke:none;fill-rule:nonzero;fill:rgb(27.843139%,25.490198%,16.470589%);fill-opacity:1;" d="M 16.675781 37.710938 L 16.535156 31.628906 L 22.617188 31.488281 L 22.753906 37.574219 Z M 16.675781 37.710938 "/>
</g>
</g>
</g>
<path style=" stroke:none;fill-rule:nonzero;fill:rgb(98.823529%,92.54902%,57.254905%);fill-opacity:1;" d="M 5.34375 19.484375 C 5.351562 19.316406 5.351562 19.167969 5.351562 19.023438 L 5.890625 19.023438 L 5.890625 19.484375 Z M 5.890625 18.125 L 5.890625 18.621094 L 5.351562 18.621094 L 5.351562 18.125 Z M 3.496094 19.359375 L 4.214844 19.359375 L 4.214844 19.570312 L 3.496094 19.570312 Z M 3.496094 18.84375 L 4.214844 18.84375 L 4.214844 19.054688 L 3.496094 19.054688 Z M 6.324219 17.722656 L 4.910156 17.722656 L 4.910156 19.023438 C 4.910156 19.453125 4.898438 20.003906 4.710938 20.46875 L 4.710938 20.097656 L 4.078125 20.097656 L 4.078125 19.898438 L 4.644531 19.898438 L 4.644531 18.515625 L 4.078125 18.515625 L 4.078125 18.324219 L 4.71875 18.324219 L 4.71875 17.925781 L 4.078125 17.925781 L 4.078125 17.554688 L 3.632812 17.554688 L 3.632812 17.925781 L 2.980469 17.925781 L 2.980469 18.324219 L 3.632812 18.324219 L 3.632812 18.515625 L 3.085938 18.515625 L 3.085938 19.898438 L 3.632812 19.898438 L 3.632812 20.097656 L 2.957031 20.097656 L 2.957031 20.5 L 3.632812 20.5 L 3.632812 21.066406 L 4.078125 21.066406 L 4.078125 20.5 L 4.699219 20.5 C 4.644531 20.613281 4.582031 20.730469 4.507812 20.847656 C 4.613281 20.890625 4.804688 21.003906 4.878906 21.078125 C 5.121094 20.761719 5.238281 20.320312 5.300781 19.886719 L 5.890625 19.886719 L 5.890625 20.550781 C 5.890625 20.605469 5.871094 20.625 5.816406 20.625 C 5.753906 20.625 5.574219 20.625 5.40625 20.613281 C 5.46875 20.742188 5.53125 20.941406 5.542969 21.066406 C 5.828125 21.066406 6.019531 21.058594 6.15625 20.984375 C 6.28125 20.910156 6.324219 20.785156 6.324219 20.5625 Z M 6.324219 17.722656 "/>
<path style=" stroke:none;fill-rule:nonzero;fill:rgb(98.823529%,92.54902%,57.254905%);fill-opacity:1;" d="M 17.933594 7.429688 L 21.097656 7.429688 L 21.097656 6.996094 L 17.933594 6.996094 Z M 20.160156 5.960938 L 18.851562 5.960938 L 18.851562 5.75 L 20.160156 5.75 Z M 20.160156 6.457031 L 18.851562 6.457031 L 18.851562 6.257812 L 20.160156 6.257812 Z M 19.894531 5.128906 C 19.960938 5.246094 20.011719 5.339844 20.085938 5.445312 L 18.546875 5.445312 C 18.578125 5.339844 18.597656 5.234375 18.621094 5.128906 Z M 20.488281 4.464844 L 20.488281 4.738281 L 18.652344 4.738281 C 18.660156 4.675781 18.660156 4.601562 18.660156 4.546875 L 18.660156 4.464844 Z M 20.941406 5.128906 L 20.941406 4.074219 L 18.199219 4.074219 L 18.199219 4.539062 C 18.199219 4.949219 18.15625 5.539062 17.742188 5.960938 C 17.839844 6.015625 18.027344 6.195312 18.101562 6.289062 C 18.25 6.128906 18.355469 5.949219 18.441406 5.761719 L 18.441406 6.773438 L 20.582031 6.773438 L 20.582031 5.949219 C 20.707031 6.023438 20.835938 6.097656 20.972656 6.160156 C 21.035156 6.046875 21.171875 5.867188 21.277344 5.78125 C 20.910156 5.65625 20.59375 5.414062 20.382812 5.128906 Z M 20.941406 5.128906 "/>
<path style=" stroke:none;fill-rule:nonzero;fill:rgb(98.823529%,92.54902%,57.254905%);fill-opacity:1;" d="M 34.6875 18.25 C 34.632812 18.347656 34.582031 18.441406 34.527344 18.515625 L 34 18.515625 C 34.0625 18.429688 34.125 18.347656 34.191406 18.25 Z M 35.203125 19.371094 L 34.800781 19.371094 L 34.800781 18.894531 L 35.203125 18.894531 Z M 34.042969 19.371094 L 34.042969 18.894531 L 34.410156 18.894531 L 34.410156 19.371094 Z M 32.734375 19.972656 L 32.734375 19.285156 L 33.050781 19.285156 L 33.050781 19.972656 Z M 33.050781 18.230469 L 33.050781 18.894531 L 32.734375 18.894531 L 32.734375 18.230469 Z M 35.160156 20.65625 C 35.109375 20.65625 35.097656 20.644531 35.097656 20.539062 L 35.097656 19.75 L 35.613281 19.75 L 35.613281 18.515625 L 34.96875 18.515625 C 35.074219 18.355469 35.183594 18.1875 35.253906 18.039062 L 34.980469 17.863281 L 34.917969 17.882812 L 34.402344 17.882812 C 34.441406 17.796875 34.476562 17.714844 34.515625 17.628906 L 34.074219 17.554688 C 33.957031 17.863281 33.769531 18.199219 33.453125 18.472656 L 33.453125 17.839844 L 32.332031 17.839844 L 32.332031 20.65625 L 32.734375 20.65625 L 32.734375 20.363281 L 33.453125 20.363281 L 33.453125 18.683594 C 33.527344 18.746094 33.597656 18.820312 33.632812 18.882812 L 33.652344 18.875 L 33.652344 19.75 L 34.019531 19.75 C 33.96875 20.214844 33.84375 20.550781 33.199219 20.730469 C 33.28125 20.816406 33.398438 20.972656 33.441406 21.089844 C 34.210938 20.835938 34.378906 20.371094 34.441406 19.75 L 34.675781 19.75 L 34.675781 20.539062 C 34.675781 20.921875 34.75 21.046875 35.085938 21.046875 L 35.359375 21.046875 C 35.644531 21.046875 35.742188 20.910156 35.78125 20.382812 C 35.667969 20.339844 35.488281 20.277344 35.402344 20.203125 C 35.394531 20.605469 35.382812 20.65625 35.320312 20.65625 Z M 35.160156 20.65625 "/>
<path style=" stroke:none;fill-rule:nonzero;fill:rgb(98.823529%,92.54902%,57.254905%);fill-opacity:1;" d="M 20.402344 34.09375 C 20.328125 33.988281 20.160156 33.839844 20.03125 33.746094 L 19.769531 33.945312 C 19.894531 34.0625 20.054688 34.230469 20.117188 34.328125 Z M 20.632812 33.695312 C 20.507812 34.050781 20.316406 34.347656 20.085938 34.601562 C 19.90625 34.410156 19.75 34.210938 19.632812 33.980469 C 19.707031 33.882812 19.769531 33.789062 19.820312 33.695312 Z M 20.886719 33.28125 L 20.8125 33.292969 L 20.054688 33.292969 C 20.085938 33.21875 20.128906 33.132812 20.160156 33.050781 L 19.855469 32.964844 L 21.226562 32.964844 L 21.226562 32.542969 L 19.863281 32.542969 C 19.800781 32.417969 19.714844 32.257812 19.644531 32.144531 L 19.222656 32.28125 C 19.273438 32.355469 19.316406 32.460938 19.359375 32.542969 L 17.871094 32.542969 L 17.871094 32.964844 L 18.652344 32.964844 C 18.441406 33.449219 18.101562 33.925781 17.722656 34.222656 C 17.816406 34.296875 17.988281 34.484375 18.050781 34.570312 C 18.144531 34.484375 18.238281 34.390625 18.335938 34.285156 L 18.335938 35.699219 L 18.777344 35.699219 L 18.777344 33.695312 C 18.902344 33.492188 19.007812 33.273438 19.105469 33.0625 L 18.777344 32.964844 L 19.707031 32.964844 C 19.539062 33.386719 19.210938 33.894531 18.820312 34.199219 C 18.914062 34.261719 19.050781 34.410156 19.125 34.507812 C 19.210938 34.441406 19.292969 34.367188 19.367188 34.285156 C 19.484375 34.507812 19.621094 34.695312 19.769531 34.875 C 19.503906 35.074219 19.199219 35.222656 18.871094 35.328125 C 18.957031 35.402344 19.09375 35.59375 19.15625 35.707031 C 19.496094 35.582031 19.8125 35.402344 20.085938 35.179688 C 20.359375 35.402344 20.675781 35.582031 21.035156 35.707031 C 21.097656 35.582031 21.234375 35.402344 21.332031 35.308594 C 20.980469 35.210938 20.675781 35.066406 20.414062 34.875 C 20.761719 34.507812 21.015625 34.019531 21.171875 33.417969 Z M 20.886719 33.28125 "/>
</g>
</svg>
